<?xml version="1.0" encoding="UTF-8" standalone="no"?>
<svg
   xmlns:dc="http://purl.org/dc/elements/1.1/"
   xmlns:cc="http://creativecommons.org/ns#"
   xmlns:rdf="http://www.w3.org/1999/02/22-rdf-syntax-ns#"
   xmlns:svg="http://www.w3.org/2000/svg"
   xmlns="http://www.w3.org/2000/svg"
   xmlns:sodipodi="http://sodipodi.sourceforge.net/DTD/sodipodi-0.dtd"
   xmlns:inkscape="http://www.inkscape.org/namespaces/inkscape"
   id="Capa_1"
   enable-background="new 0 0 479.058 479.058"
   height="24"
   viewBox="0 0 22.455844 22.455844"
   width="24"
   version="1.1"
   sodipodi:docname="envelope-black.svg"
   inkscape:version="0.92.5 (2060ec1f9f, 2020-04-08)">
  <metadata
     id="metadata9">
    <rdf:RDF>
      <cc:Work
         rdf:about="">
        <dc:format>image/svg+xml</dc:format>
        <dc:type
           rdf:resource="http://purl.org/dc/dcmitype/StillImage" />
        <dc:title></dc:title>
      </cc:Work>
    </rdf:RDF>
  </metadata>
  <defs
     id="defs7" />
  <sodipodi:namedview
     pagecolor="#ffffff"
     bordercolor="#666666"
     borderopacity="1"
     objecttolerance="10"
     gridtolerance="10"
     guidetolerance="10"
     inkscape:pageopacity="0"
     inkscape:pageshadow="2"
     inkscape:window-width="1600"
     inkscape:window-height="836"
     id="namedview5"
     showgrid="false"
     inkscape:zoom="5.2149125"
     inkscape:cx="75.353374"
     inkscape:cy="-7.9401276"
     inkscape:window-x="0"
     inkscape:window-y="27"
     inkscape:window-maximized="1"
     inkscape:current-layer="Capa_1" />
  <path
     d="M 18.150666,4.7036493 H 4.7728542 c -0.8511972,0 -1.5436068,0.6924102 -1.5436068,1.5436069 v 9.2615718 c 0,0.851197 0.6924096,1.543607 1.5436068,1.543607 H 18.150666 c 0.851196,0 1.543607,-0.69241 1.543607,-1.543607 V 6.2472562 c 0,-0.8511967 -0.692411,-1.5436069 -1.543607,-1.5436069 z m 0,1.0290598 c 0.06991,0 0.136412,0.014505 0.197212,0.039832 L 11.46176,11.740788 4.5756072,5.7725436 c 0.060799,-0.0253 0.1273049,-0.039832 0.1972127,-0.039832 z m 0,10.2906319 H 4.7728542 c -0.2838927,0 -0.5145471,-0.23062 -0.5145471,-0.514547 V 6.8597567 l 6.8662869,5.9507843 c 0.09699,0.0839 0.217078,0.125621 0.337166,0.125621 0.120087,0 0.240175,-0.04169 0.337165,-0.125621 l 6.866288,-5.9507843 v 8.6490713 c -3.5e-5,0.283893 -0.230655,0.514513 -0.514547,0.514513 z"
     id="path2"
     inkscape:connector-curvature="0"
     style="stroke-width:0.03436959" />
</svg>
