<?xml version="1.0" encoding="UTF-8" standalone="no"?>
<svg
   xmlns:dc="http://purl.org/dc/elements/1.1/"
   xmlns:cc="http://creativecommons.org/ns#"
   xmlns:rdf="http://www.w3.org/1999/02/22-rdf-syntax-ns#"
   xmlns:svg="http://www.w3.org/2000/svg"
   xmlns="http://www.w3.org/2000/svg"
   xmlns:sodipodi="http://sodipodi.sourceforge.net/DTD/sodipodi-0.dtd"
   xmlns:inkscape="http://www.inkscape.org/namespaces/inkscape"
   viewBox="0 -31 24 24"
   version="1.1"
   id="svg4"
   sodipodi:docname="brief-whitesvg.svg"
   width="24"
   height="24"
   inkscape:version="0.92.5 (2060ec1f9f, 2020-04-08)">
  <metadata
     id="metadata10">
    <rdf:RDF>
      <cc:Work
         rdf:about="">
        <dc:format>image/svg+xml</dc:format>
        <dc:type
           rdf:resource="http://purl.org/dc/dcmitype/StillImage" />
        <dc:title></dc:title>
      </cc:Work>
    </rdf:RDF>
  </metadata>
  <defs
     id="defs8" />
  <sodipodi:namedview
     pagecolor="#ffffff"
     bordercolor="#666666"
     borderopacity="1"
     objecttolerance="10"
     gridtolerance="10"
     guidetolerance="10"
     inkscape:pageopacity="0"
     inkscape:pageshadow="2"
     inkscape:window-width="1600"
     inkscape:window-height="836"
     id="namedview6"
     showgrid="false"
     inkscape:zoom="14.75"
     inkscape:cx="-5.8944373"
     inkscape:cy="8.2133443"
     inkscape:window-x="0"
     inkscape:window-y="27"
     inkscape:window-maximized="1"
     inkscape:current-layer="svg4" />
  <path
     d="m 21.576801,-25.677177 c -0.0015,0 -0.0021,-1.58e-4 -0.0036,-1.58e-4 h -5.363967 v -0.591607 c 0,-0.978632 -0.796212,-1.774843 -1.774845,-1.774843 H 9.7015055 c -0.9786325,0 -1.7748437,0.796211 -1.7748437,1.774843 v 0.591607 H 2.562694 c -0.3293887,0 -0.5916074,0.269926 -0.5916074,0.591615 v 13.015499 c 0,0.978632 0.7962111,1.774843 1.7748366,1.774843 H 20.38999 c 0.978626,0 1.774837,-0.796211 1.774837,-1.774843 v -13.003015 c 0,-7.16e-4 0,-0.0015 0,-0.0021 -0.02263,-0.388558 -0.261603,-0.599472 -0.587912,-0.601629 z M 9.1097764,-26.268942 c 0,-0.326158 0.2654562,-0.591614 0.5916146,-0.591614 h 4.732903 c 0.326158,0 0.591614,0.265456 0.591614,0.591614 v 0.591615 H 9.1097764 Z m 11.6424636,1.774844 -1.837243,5.511558 c -0.08057,0.242035 -0.306125,0.404573 -0.561102,0.404573 h -3.327987 v -0.591614 c 0,-0.326768 -0.26484,-0.591607 -0.591614,-0.591607 H 9.701391 c -0.3267743,0 -0.5916146,0.264839 -0.5916146,0.591607 v 0.591614 H 5.7817895 c -0.2549775,0 -0.4805315,-0.162538 -0.5611023,-0.404573 l -1.8372434,-5.511558 z m -6.909554,5.916131 v 1.183229 h -3.549688 v -1.183229 z m 7.138804,6.507754 c 0,0.326157 -0.265456,0.591614 -0.591614,0.591614 H 3.7458086 c -0.3261584,0 -0.5916146,-0.265457 -0.5916146,-0.591614 v -9.369835 l 0.9439661,2.831734 c 0.2418845,0.725961 0.9185394,1.213576 1.6836294,1.213576 h 3.3279869 v 0.591616 c 0,0.326774 0.2648403,0.591614 0.5916146,0.591614 h 4.732903 c 0.326774,0 0.591614,-0.26484 0.591614,-0.591614 v -0.591616 h 3.327987 c 0.76509,0 1.441744,-0.487615 1.68363,-1.213576 l 0.943965,-2.831734 z m 0,0"
     id="path2"
     inkscape:connector-curvature="0"
     style="stroke-width:0.03944091;fill:#ffffff" />
</svg>
