<?xml version="1.0" encoding="UTF-8" standalone="no"?>
<!-- Generator: Adobe Illustrator 19.0.0, SVG Export Plug-In . SVG Version: 6.00 Build 0)  -->

<svg
   xmlns:dc="http://purl.org/dc/elements/1.1/"
   xmlns:cc="http://creativecommons.org/ns#"
   xmlns:rdf="http://www.w3.org/1999/02/22-rdf-syntax-ns#"
   xmlns:svg="http://www.w3.org/2000/svg"
   xmlns="http://www.w3.org/2000/svg"
   xmlns:sodipodi="http://sodipodi.sourceforge.net/DTD/sodipodi-0.dtd"
   xmlns:inkscape="http://www.inkscape.org/namespaces/inkscape"
   version="1.1"
   id="Capa_1"
   x="0px"
   y="0px"
   viewBox="0 0 24 24"
   xml:space="preserve"
   sodipodi:docname="car.svg"
   width="24"
   height="24"
   inkscape:version="0.92.5 (2060ec1f9f, 2020-04-08)"><metadata
   id="metadata67"><rdf:RDF><cc:Work
       rdf:about=""><dc:format>image/svg+xml</dc:format><dc:type
         rdf:resource="http://purl.org/dc/dcmitype/StillImage" /><dc:title></dc:title></cc:Work></rdf:RDF></metadata><defs
   id="defs65" /><sodipodi:namedview
   pagecolor="#ffffff"
   bordercolor="#666666"
   borderopacity="1"
   objecttolerance="10"
   gridtolerance="10"
   guidetolerance="10"
   inkscape:pageopacity="0"
   inkscape:pageshadow="2"
   inkscape:window-width="1600"
   inkscape:window-height="836"
   id="namedview63"
   showgrid="false"
   inkscape:zoom="22.820814"
   inkscape:cx="3.8617916"
   inkscape:cy="10.943689"
   inkscape:window-x="0"
   inkscape:window-y="27"
   inkscape:window-maximized="1"
   inkscape:current-layer="Capa_1" />





<g
   id="g32"
   transform="translate(0,-444)">
</g>
<g
   id="g34"
   transform="translate(0,-444)">
</g>
<g
   id="g36"
   transform="translate(0,-444)">
</g>
<g
   id="g38"
   transform="translate(0,-444)">
</g>
<g
   id="g40"
   transform="translate(0,-444)">
</g>
<g
   id="g42"
   transform="translate(0,-444)">
</g>
<g
   id="g44"
   transform="translate(0,-444)">
</g>
<g
   id="g46"
   transform="translate(0,-444)">
</g>
<g
   id="g48"
   transform="translate(0,-444)">
</g>
<g
   id="g50"
   transform="translate(0,-444)">
</g>
<g
   id="g52"
   transform="translate(0,-444)">
</g>
<g
   id="g54"
   transform="translate(0,-444)">
</g>
<g
   id="g56"
   transform="translate(0,-444)">
</g>
<g
   id="g58"
   transform="translate(0,-444)">
</g>
<g
   id="g60"
   transform="translate(0,-444)">
</g>
<g
   id="g924"
   transform="matrix(0.04670336,0,0,0.04670336,0.96971617,21.926351)"><g
     transform="translate(0,-444)"
     id="g6">
	<g
   id="g4">
		<path
   inkscape:connector-curvature="0"
   id="path2"
   d="M 450.1,187.5 439.9,176.7 404.1,80.2 C 398,63.9 382.4,53.1 365,53 H 109.3 C 91.9,53 76.3,63.9 70.2,80.2 L 34.9,175.5 20.2,189.1 C 7.4,200 0,216 0,232.8 v 140.6 c 0.1,23 18.8,41.6 41.8,41.6 h 26.4 c 23,0 41.7,-18.6 41.8,-41.6 V 353 h 248 v 20.4 c 0.1,23 18.8,41.6 41.8,41.6 h 26.4 c 23,0 41.7,-18.6 41.8,-41.6 V 229.1 c -0.1,-15.7 -6.5,-30.7 -17.9,-41.6 z M 89,87 c 3.2,-8.5 11.3,-14 20.3,-14 h 255.8 c 9,0 17.1,5.6 20.3,14 l 31.2,84 h -23.3 c -5.5,-37.5 -40.4,-63.4 -77.9,-57.8 -29.9,4.4 -53.4,27.9 -57.8,57.8 H 57.8 Z m 283.9,84 h -95.1 c 5.5,-26.3 31.3,-43.1 57.6,-37.6 18.8,4 33.5,18.7 37.5,37.6 z M 90,373.4 C 89.9,385.4 80.2,395 68.2,395 H 41.8 c -12,0 -21.7,-9.6 -21.8,-21.6 v -26.2 c 6,3.9 13.9,5.8 21.8,5.8 H 90 Z m 358,0 c -0.1,12 -9.8,21.6 -21.8,21.6 h -26.4 c -12,0 -21.7,-9.7 -21.8,-21.6 V 353 h 48.2 c 7.9,0 15.8,-1.9 21.8,-5.8 z M 426.2,333 H 41.8 C 29.9,333.1 20.1,323.6 20,311.6 v -78.8 c 0,-11 4.9,-21.5 13.3,-28.6 0.1,-0.1 0.3,-0.3 0.4,-0.4 L 47.3,191 H 426 l 9.6,10.3 c 0.1,0.2 0.4,0.3 0.5,0.5 7.5,7.1 11.8,17 11.8,27.3 v 82.5 h 0.1 c -0.1,11.9 -9.9,21.5 -21.8,21.4 z" />
	</g>
</g><rect
     ry="8.1800852"
     y="-211.73517"
     x="44.618645"
     height="63.209755"
     width="92.211861"
     id="rect877"
     style="opacity:1;fill:#000000;fill-opacity:1;stroke:none;stroke-width:1.94228911;stroke-miterlimit:4;stroke-dasharray:none;stroke-dashoffset:0;stroke-opacity:1" /><rect
     ry="8.1800852"
     y="-214.83368"
     x="328.69067"
     height="63.209755"
     width="92.211861"
     id="rect877-6"
     style="opacity:1;fill:#000000;fill-opacity:1;stroke:none;stroke-width:1.94228911;stroke-miterlimit:4;stroke-dasharray:none;stroke-dashoffset:0;stroke-opacity:1" /></g></svg>