<?xml version="1.0" encoding="UTF-8" standalone="no"?>
<!-- Generator: Adobe Illustrator 19.0.0, SVG Export Plug-In . SVG Version: 6.00 Build 0)  -->

<svg
   xmlns:dc="http://purl.org/dc/elements/1.1/"
   xmlns:cc="http://creativecommons.org/ns#"
   xmlns:rdf="http://www.w3.org/1999/02/22-rdf-syntax-ns#"
   xmlns:svg="http://www.w3.org/2000/svg"
   xmlns="http://www.w3.org/2000/svg"
   xmlns:sodipodi="http://sodipodi.sourceforge.net/DTD/sodipodi-0.dtd"
   xmlns:inkscape="http://www.inkscape.org/namespaces/inkscape"
   version="1.1"
   id="Capa_1"
   x="0px"
   y="0px"
   viewBox="0 0 24 24"
   xml:space="preserve"
   sodipodi:docname="search-black.svg"
   width="24"
   height="24"
   inkscape:version="0.92.5 (2060ec1f9f, 2020-04-08)"><metadata
   id="metadata49"><rdf:RDF><cc:Work
       rdf:about=""><dc:format>image/svg+xml</dc:format><dc:type
         rdf:resource="http://purl.org/dc/dcmitype/StillImage" /><dc:title></dc:title></cc:Work></rdf:RDF></metadata><defs
   id="defs47" /><sodipodi:namedview
   pagecolor="#ffffff"
   bordercolor="#666666"
   borderopacity="1"
   objecttolerance="10"
   gridtolerance="10"
   guidetolerance="10"
   inkscape:pageopacity="0"
   inkscape:pageshadow="2"
   inkscape:window-width="1600"
   inkscape:window-height="836"
   id="namedview45"
   showgrid="false"
   inkscape:zoom="14.75"
   inkscape:cx="20.092714"
   inkscape:cy="5.263903"
   inkscape:window-x="0"
   inkscape:window-y="27"
   inkscape:window-maximized="1"
   inkscape:current-layer="Capa_1" />

<g
   id="g862"
   transform="matrix(0.03851392,0,0,0.03681143,2.276146,20.675847)"><g
     transform="translate(0,-488)"
     id="g6">
	<g
   id="g4">
		<path
   inkscape:connector-curvature="0"
   id="path2"
   d="M 225.474,0 C 101.151,0 0,101.151 0,225.474 c 0,124.33 101.151,225.474 225.474,225.474 124.33,0 225.474,-101.144 225.474,-225.474 C 450.948,101.151 349.804,0 225.474,0 Z m 0,409.323 c -101.373,0 -183.848,-82.475 -183.848,-183.848 0,-101.373 82.475,-183.849 183.848,-183.849 101.373,0 183.848,82.475 183.848,183.848 0,101.373 -82.475,183.849 -183.848,183.849 z" />
	</g>
</g><g
     transform="translate(0,-488)"
     id="g12">
	<g
   id="g10">
		<path
   inkscape:connector-curvature="0"
   id="path8"
   d="M 505.902,476.472 386.574,357.144 c -8.131,-8.131 -21.299,-8.131 -29.43,0 -8.131,8.124 -8.131,21.306 0,29.43 l 119.328,119.328 c 4.065,4.065 9.387,6.098 14.715,6.098 5.321,0 10.649,-2.033 14.715,-6.098 8.131,-8.124 8.131,-21.306 0,-29.43 z" />
	</g>
</g></g>
<g
   id="g14"
   transform="translate(0,-488)">
</g>
<g
   id="g16"
   transform="translate(0,-488)">
</g>
<g
   id="g18"
   transform="translate(0,-488)">
</g>
<g
   id="g20"
   transform="translate(0,-488)">
</g>
<g
   id="g22"
   transform="translate(0,-488)">
</g>
<g
   id="g24"
   transform="translate(0,-488)">
</g>
<g
   id="g26"
   transform="translate(0,-488)">
</g>
<g
   id="g28"
   transform="translate(0,-488)">
</g>
<g
   id="g30"
   transform="translate(0,-488)">
</g>
<g
   id="g32"
   transform="translate(0,-488)">
</g>
<g
   id="g34"
   transform="translate(0,-488)">
</g>
<g
   id="g36"
   transform="translate(0,-488)">
</g>
<g
   id="g38"
   transform="translate(0,-488)">
</g>
<g
   id="g40"
   transform="translate(0,-488)">
</g>
<g
   id="g42"
   transform="translate(0,-488)">
</g>
</svg>