<?xml version="1.0" encoding="UTF-8" standalone="no"?>
<!-- Generator: Adobe Illustrator 16.0.0, SVG Export Plug-In . SVG Version: 6.00 Build 0)  -->

<svg
   xmlns:dc="http://purl.org/dc/elements/1.1/"
   xmlns:cc="http://creativecommons.org/ns#"
   xmlns:rdf="http://www.w3.org/1999/02/22-rdf-syntax-ns#"
   xmlns:svg="http://www.w3.org/2000/svg"
   xmlns="http://www.w3.org/2000/svg"
   xmlns:sodipodi="http://sodipodi.sourceforge.net/DTD/sodipodi-0.dtd"
   xmlns:inkscape="http://www.inkscape.org/namespaces/inkscape"
   version="1.1"
   id="Capa_1"
   x="0px"
   y="0px"
   width="24"
   height="24"
   viewBox="0 0 24.000001 24.000001"
   xml:space="preserve"
   sodipodi:docname="star-white.svg"
   inkscape:version="0.92.5 (2060ec1f9f, 2020-04-08)"><metadata
   id="metadata41"><rdf:RDF><cc:Work
       rdf:about=""><dc:format>image/svg+xml</dc:format><dc:type
         rdf:resource="http://purl.org/dc/dcmitype/StillImage" /><dc:title></dc:title></cc:Work></rdf:RDF></metadata><defs
   id="defs39" /><sodipodi:namedview
   pagecolor="#ffffff"
   bordercolor="#666666"
   borderopacity="1"
   objecttolerance="10"
   gridtolerance="10"
   guidetolerance="10"
   inkscape:pageopacity="0"
   inkscape:pageshadow="2"
   inkscape:window-width="1600"
   inkscape:window-height="836"
   id="namedview37"
   showgrid="false"
   inkscape:zoom="19.976194"
   inkscape:cx="10.207299"
   inkscape:cy="11.206965"
   inkscape:window-x="0"
   inkscape:window-y="27"
   inkscape:window-maximized="1"
   inkscape:current-layer="g4" />
<g
   id="g4"
   transform="matrix(0.04394673,0,0,0.04394673,7.7120397,7.6829605)">
	<path
   d="m 103.59522,-146.94351 c -129.98373,0 -235.72685,105.751853 -235.72685,235.731845 0,129.987475 105.74312,235.723115 235.72685,235.723115 129.98373,0 235.72187,-105.73564 235.72187,-235.723115 0,-129.979992 -105.7294,-235.731845 -235.72187,-235.731845 z M 30.793558,136.56124 C 34.64951,124.72152 30.456849,111.82678 20.380495,104.49523 L -70.124629,38.74701 H 41.729148 c 12.483207,0 23.43875,-7.9688 27.29969,-19.822236 L 103.60271,-87.478044 138.15413,18.932258 c 3.87965,11.845952 14.84266,19.814752 27.28846,19.814752 H 277.3051 l -90.50512,65.74822 c -10.06388,7.33155 -14.25156,20.21879 -10.4168,32.06601 l 34.57386,106.41029 -90.50512,-65.75694 c -4.92719,-3.58659 -10.75227,-5.48214 -16.84796,-5.48214 -6.095701,0 -11.948218,1.89555 -16.871665,5.48214 l -90.5051229,65.75694 z"
   id="path2"
   inkscape:connector-curvature="0"
   style="stroke-width:1.24707353;fill:#000000" />
<path
   style="fill:#a0a0a0;stroke:none;stroke-width:0.05005959"
   d="m 7.6318846,18.166932 c 0.018937,-0.06195 0.3625032,-1.115078 0.7634808,-2.340286 0.6363719,-1.944468 0.729014,-2.269015 0.7287648,-2.553039 C 9.1238098,12.90985 9.0387146,12.697106 8.7875116,12.432051 8.7011125,12.340887 7.7548993,11.631292 6.6848156,10.855174 L 4.7392089,9.4440488 7.3105604,9.419019 C 9.8442416,9.3943556 9.884944,9.3923673 10.088881,9.2832884 10.328877,9.1549231 10.5819,8.9150054 10.677258,8.7253874 10.713865,8.652594 11.075601,7.5680658 11.481115,6.3153247 11.88663,5.0625836 12.23431,4.0208791 12.253739,4.0004259 c 0.01943,-0.020453 0.346674,0.925673 0.727212,2.1025026 0.380537,1.1768296 0.73709,2.2609032 0.792339,2.4090523 0.125465,0.3364301 0.395475,0.6410476 0.689074,0.7773944 0.216727,0.1006478 0.32197,0.1055631 2.775862,0.1296438 l 2.550593,0.02503 -1.983948,1.440371 c -1.091171,0.792204 -2.045242,1.513062 -2.120158,1.601907 -0.197431,0.234138 -0.285135,0.474337 -0.287462,0.78728 -0.0017,0.222681 0.144053,0.723652 0.762015,2.619934 0.420234,1.289534 0.756621,2.35185 0.747525,2.360704 -0.0091,0.0089 -0.895083,-0.62323 -1.968861,-1.40463 -1.073778,-0.7814 -2.031168,-1.459142 -2.127532,-1.506093 -0.231003,-0.112549 -0.650261,-0.144762 -0.915947,-0.07038 -0.145635,0.04078 -0.856808,0.527703 -2.2391201,1.533086 -1.1141351,0.810333 -2.03294,1.473333 -2.0417885,1.473333 -0.00885,0 -5.948e-4,-0.05069 0.018342,-0.112634 z"
   id="path848"
   inkscape:connector-curvature="0"
   transform="matrix(22.754822,0,0,22.754822,-175.48609,-174.8244)" /><path
   style="fill:#000000;stroke:none;stroke-width:0.05005959"
   d="m 7.6542604,18.199279 c 0,-0.01679 0.3019187,-0.960036 0.6709305,-2.096096 C 9.1268444,13.635168 9.1934928,13.369737 9.1077502,12.986599 9.0659475,12.799805 8.9907797,12.651128 8.871256,12.51883 8.6835433,12.311054 7.8773274,11.697533 6.0109187,10.342147 L 4.843143,9.4941084 5.1849355,9.4807615 C 5.3729214,9.4734207 6.5179078,9.44966 7.7293497,9.4279596 10.19496,9.3837941 10.077789,9.4019687 10.475747,9.0019544 c 0.201389,-0.2024292 0.230794,-0.278784 0.981644,-2.5489658 0.425719,-1.2871571 0.790028,-2.3402857 0.809572,-2.3402857 0.01955,0 0.355711,0.9742847 0.747036,2.1650771 0.391324,1.1907924 0.76291,2.2678772 0.825745,2.3935217 0.124292,0.2485311 0.448179,0.5696008 0.662782,0.6570158 0.08502,0.034631 0.95102,0.070655 2.337668,0.097242 1.211442,0.023228 2.346961,0.048154 2.523375,0.055391 l 0.320754,0.013158 -1.597273,1.1635145 c -2.494548,1.817126 -2.619373,1.930012 -2.695507,2.437704 -0.04193,0.279584 0.0841,0.742692 0.844505,3.103297 0.345274,1.07187 0.619675,1.95695 0.609781,1.966844 -0.0099,0.0099 -0.386902,-0.247445 -0.837795,-0.571865 -2.398117,-1.725459 -3.040895,-2.177362 -3.225956,-2.267994 -0.139307,-0.06823 -0.305523,-0.09968 -0.526765,-0.09968 -0.451354,0 -0.424549,-0.01703 -3.6874652,2.343072 -0.5024731,0.363444 -0.9135874,0.647069 -0.9135874,0.630276 z"
   id="path850"
   inkscape:connector-curvature="0"
   transform="matrix(22.754822,0,0,22.754822,-175.48609,-174.8244)" /><path
   style="fill:#a0a0a0;stroke:none;stroke-width:0.05005959"
   d="M 7.7300711,18.026812 C 7.7514571,17.959331 8.0260796,17.104417 8.3403433,16.127003 9.2184615,13.395907 9.2587192,13.198942 9.0318598,12.743694 8.9359652,12.551259 8.7940978,12.404693 8.4091661,12.100379 7.9827945,11.763303 5.3276242,9.7992791 5.027925,9.5992816 4.9082469,9.5194175 5.2542755,9.5005921 8.1548562,9.4291651 10.139046,9.3803044 10.152566,9.3779566 10.468974,9.02731 c 0.240983,-0.2670592 0.225937,-0.2287432 1.045054,-2.6612641 0.384636,-1.1422462 0.718069,-2.0955428 0.740963,-2.118437 0.02289,-0.022894 0.31855,0.7877734 0.657013,1.8014835 0.927483,2.7778541 0.893117,2.6942277 1.243879,3.0268236 l 0.298079,0.282642 0.567371,0.031519 c 0.312055,0.017336 1.453837,0.052 2.537294,0.077031 1.083459,0.025031 1.978409,0.053996 1.988779,0.064367 0.01037,0.01037 -0.673182,0.524321 -1.519005,1.142114 -1.715614,1.253091 -2.374183,1.780134 -2.516215,2.013687 -0.256187,0.421265 -0.219016,0.610241 0.675947,3.436507 0.34382,1.085773 0.619924,1.979019 0.613564,1.98499 -0.0064,0.006 -0.833791,-0.575285 -1.838737,-1.291681 -1.004946,-0.716396 -1.939809,-1.367267 -2.077473,-1.44638 -0.207936,-0.119498 -0.307824,-0.143922 -0.590194,-0.144313 -0.501532,-6.9e-4 -0.537626,0.0207 -2.9079725,1.723357 -0.7742201,0.556136 -1.4725764,1.053589 -1.5519029,1.105452 l -0.1442301,0.0943 z"
   id="path852"
   inkscape:connector-curvature="0"
   transform="matrix(22.754822,0,0,22.754822,-175.48609,-174.8244)" /><path
   style="fill:#000000;stroke:none;stroke-width:0.05005959"
   d="m 7.7543795,18.055569 c 0,-0.01981 0.1934063,-0.636424 0.4297918,-1.370253 0.7143618,-2.217649 0.928044,-2.962799 0.957268,-3.338175 C 9.1794634,12.858729 9.0413587,12.589773 8.5441598,12.183952 8.2479133,11.942151 6.1713263,10.393402 5.2609883,9.735314 l -0.2156802,-0.1559161 0.24071,-0.029689 c 0.1323904,-0.01633 1.1417824,-0.053771 2.2430933,-0.083203 1.1013109,-0.029432 2.1338557,-0.073745 2.2945441,-0.098473 0.3763225,-0.057911 0.5610425,-0.1690898 0.7594845,-0.4571131 0.161343,-0.2341771 0.249249,-0.471674 1.150649,-3.1087052 0.270576,-0.7915672 0.508526,-1.4392131 0.528776,-1.4392131 0.04207,0 0.225844,0.5096046 0.947566,2.6276331 0.281363,0.8257108 0.552533,1.580359 0.6026,1.6769961 0.05007,0.096637 0.213967,0.2961151 0.36422,0.4432847 l 0.273188,0.267581 0.86964,0.041127 c 0.478302,0.02262 1.59613,0.057269 2.484062,0.076998 0.887932,0.019729 1.614422,0.055232 1.614422,0.078895 0,0.023664 -0.174583,0.1714 -0.387962,0.3283032 -2.652736,1.9506264 -3.444,2.5834264 -3.594658,2.8747674 -0.174309,0.337076 -0.08739,0.732848 0.746409,3.398476 0.314342,1.004946 0.565354,1.834067 0.557804,1.842491 -0.0075,0.0084 -0.747849,-0.503554 -1.645109,-1.137728 -0.897261,-0.634174 -1.793063,-1.260554 -1.990671,-1.391954 l -0.359289,-0.238911 h -0.455275 c -0.441704,0 -0.464976,0.0059 -0.780664,0.197435 -0.249275,0.151254 -3.3678059,2.342897 -3.691894,2.594593 -0.034416,0.02673 -0.062575,0.03239 -0.062575,0.01258 z"
   id="path854"
   inkscape:connector-curvature="0"
   transform="matrix(22.754822,0,0,22.754822,-175.48609,-174.8244)" /><path
   style="fill:#ffffff;stroke:none;stroke-width:0.05005959"
   d="m 7.8044391,17.985628 c 0,-0.02014 0.1899243,-0.632418 0.4220539,-1.360614 C 9.3125821,13.217926 9.3464105,12.98579 8.8373129,12.433485 8.6591898,12.240244 6.7555218,10.784572 5.5162069,9.8939448 5.2901582,9.7314959 5.1111204,9.5926717 5.1183453,9.5854471 c 0.00722,-0.00723 1.0144025,-0.047736 2.2381726,-0.090026 2.2256082,-0.07691 2.5663812,-0.099605 2.8007221,-0.1865287 0.189051,-0.070125 0.395148,-0.2867741 0.538125,-0.5656776 0.0984,-0.1919528 1.369557,-3.7437755 1.500442,-4.1924903 0.06606,-0.226488 0.12208,-0.092209 0.882317,2.1150175 0.725782,2.10719 0.698913,2.0451684 1.048066,2.4192003 l 0.311144,0.333315 1.877235,0.054874 c 1.032479,0.030181 2.147556,0.070057 2.477949,0.088615 l 0.600715,0.03374 -1.20143,0.8974987 c -1.620774,1.21076 -2.252946,1.714872 -2.565554,2.045842 -0.256233,0.271284 -0.262812,0.285685 -0.262812,0.575186 0,0.386486 0.138533,0.920644 0.779132,3.004184 0.290558,0.945038 0.520935,1.740307 0.511949,1.767266 -0.009,0.02696 -0.88616,-0.560408 -1.949274,-1.305258 l -1.932936,-1.354274 h -0.433099 c -0.255177,0 -0.499275,0.0282 -0.594185,0.06864 -0.161718,0.06891 -1.609386,1.062693 -3.1271166,2.146687 -0.4474076,0.319548 -0.8134683,0.564516 -0.8134683,0.544375 z"
   id="path902"
   inkscape:connector-curvature="0"
   transform="matrix(22.754822,0,0,22.754822,-175.48609,-174.8244)" /></g>
<g
   id="g6"
   transform="translate(0,-354.04999)">
</g>
<g
   id="g8"
   transform="translate(0,-354.04999)">
</g>
<g
   id="g10"
   transform="translate(0,-354.04999)">
</g>
<g
   id="g12"
   transform="translate(0,-354.04999)">
</g>
<g
   id="g14"
   transform="translate(0,-354.04999)">
</g>
<g
   id="g16"
   transform="translate(0,-354.04999)">
</g>
<g
   id="g18"
   transform="translate(0,-354.04999)">
</g>
<g
   id="g20"
   transform="translate(0,-354.04999)">
</g>
<g
   id="g22"
   transform="translate(0,-354.04999)">
</g>
<g
   id="g24"
   transform="translate(0,-354.04999)">
</g>
<g
   id="g26"
   transform="translate(0,-354.04999)">
</g>
<g
   id="g28"
   transform="translate(0,-354.04999)">
</g>
<g
   id="g30"
   transform="translate(0,-354.04999)">
</g>
<g
   id="g32"
   transform="translate(0,-354.04999)">
</g>
<g
   id="g34"
   transform="translate(0,-354.04999)">
</g>
</svg>